# xmcd
#
# Track frame offsets: 
#        150
#        15472
#        39516
#        54100
#        68795
#        84975
#        96957
#        111384
#        128313
#        141798
#        155562
#        172172
#        191721
#        206362
#
# Disc length: 2950 seconds
#
# Revision: 2
# Processed by: cddbd v1.5.2PL0 Copyright (c) Steve Scherf et al.
# Submitted via: ExactAudioCopyFreeDBPlugin 1.0
#
DISCID=b50b840e
DTITLE=Excelsior - A Tribute To Hank Williams
DYEAR=1999
DGENRE=Instrumental
TTITLE0=You Win Again
TTITLE1=Ramblin' Man
TTITLE2=Pan American
TTITLE3=Hey Good Lookin'
TTITLE4=Kaw-Liga
TTITLE5=Your Cheatin' Heart
TTITLE6=Jambalaya
TTITLE7=I Can't Help It (If I'm Still in Love With You)
TTITLE8=Take These Chains (From My Heart)
TTITLE9=Mind Your Own Business
TTITLE10=I Saw the Light
TTITLE11=I'm So Lonesome I Could Cry
TTITLE12=Lost Highway
TTITLE13=Settin' the Woods on Fire
EXTD=Country instrumental album consisting of the songs of Hank Willia
EXTD=ms.
EXTT0=
EXTT1=
EXTT2=
EXTT3=
EXTT4=
EXTT5=
EXTT6=
EXTT7=
EXTT8=
EXTT9=
EXTT10=
EXTT11=
EXTT12=
EXTT13=
PLAYORDER=
